<svg xmlns="http://www.w3.org/2000/svg" viewBox="0 0 512 512">
  <defs>
    <linearGradient id="brandGradient" x1="0%" y1="0%" x2="100%" y2="100%">
      <stop offset="0%" stop-color="#7c3aed" />
      <stop offset="100%" stop-color="#06b6d4" />
    </linearGradient>
  </defs>
  
  <!-- Circular Background -->
  <circle cx="256" cy="256" r="256" fill="url(#brandGradient)" />
  
  <!-- Lucide Sparkles Icon -->
  <g transform="translate(144, 144) scale(9.333)" stroke="white" stroke-width="2" stroke-linecap="round" stroke-linejoin="round" fill="none">
    <path d="M9.937 15.5A2 2 0 0 0 8.5 14.063l-6.135-1.582a.5.5 0 0 1 0-.962L8.5 9.936A2 2 0 0 0 9.937 8.5l1.582-6.135a.5.5 0 0 1 .963 0L14.063 8.5A2 2 0 0 0 15.5 9.937l6.135 1.581a.5.5 0 0 1 0 .964L15.5 14.063a2 2 0 0 0-1.437 1.437l-1.582 6.135a.5.5 0 0 1-.963 0z"/>
    <path d="M20 3v4"/>
    <path d="M22 5h-4"/>
    <path d="M4 17v4"/>
    <path d="M2 19h4"/>
  </g>
</svg>
